<?xml version="1.0" encoding="UTF-8" standalone="no"?>
<!-- Created with Inkscape (http://www.inkscape.org/) -->

<svg
   xmlns:dc="http://purl.org/dc/elements/1.1/"
   xmlns:cc="http://creativecommons.org/ns#"
   xmlns:rdf="http://www.w3.org/1999/02/22-rdf-syntax-ns#"
   xmlns:svg="http://www.w3.org/2000/svg"
   xmlns="http://www.w3.org/2000/svg"
   xmlns:sodipodi="http://sodipodi.sourceforge.net/DTD/sodipodi-0.dtd"
   xmlns:inkscape="http://www.inkscape.org/namespaces/inkscape"
   width="528.84381"
   height="528.84784"
   id="svg2"
   version="1.1"
   inkscape:version="0.48.0 r9654"
   sodipodi:docname="linux.svg">
  <defs
     id="defs4" />
  <sodipodi:namedview
     id="base"
     pagecolor="#ffffff"
     bordercolor="#666666"
     borderopacity="1.0"
     inkscape:pageopacity="0.0"
     inkscape:pageshadow="2"
     inkscape:zoom="0.70710678"
     inkscape:cx="339.34288"
     inkscape:cy="490.2011"
     inkscape:document-units="px"
     inkscape:current-layer="layer1"
     showgrid="false"
     inkscape:snap-bbox="true"
     inkscape:bbox-paths="true"
     inkscape:bbox-nodes="true"
     inkscape:snap-bbox-edge-midpoints="true"
     inkscape:snap-bbox-midpoints="true"
     inkscape:object-paths="true"
     inkscape:snap-intersection-paths="true"
     inkscape:object-nodes="true"
     inkscape:snap-smooth-nodes="true"
     fit-margin-top="0"
     fit-margin-left="0"
     fit-margin-right="0"
     fit-margin-bottom="0"
     inkscape:window-width="1280"
     inkscape:window-height="973"
     inkscape:window-x="0"
     inkscape:window-y="24"
     inkscape:window-maximized="1" />
  <metadata
     id="metadata7">
    <rdf:RDF>
      <cc:Work
         rdf:about="">
        <dc:format>image/svg+xml</dc:format>
        <dc:type
           rdf:resource="http://purl.org/dc/dcmitype/StillImage" />
        <dc:title></dc:title>
      </cc:Work>
    </rdf:RDF>
  </metadata>
  <g
     inkscape:label="Ebene 1"
     inkscape:groupmode="layer"
     id="layer1"
     transform="translate(-107.62496,-81.839679)">
    <g
       id="g3186"
       transform="matrix(2.0165499,0,0,2.0165499,-378.20444,-374.28247)">
      <g
         transform="translate(0,-14)"
         id="g3176">
        <rect
           style="fill:#fb8b00;fill-opacity:1;stroke:none"
           id="rect3164"
           width="18.182745"
           height="72.73098"
           x="340.37064"
           y="378.86526" />
        <path
           sodipodi:nodetypes="ccccc"
           style="fill:#fb8b00;stroke:none"
           d="m 347.12481,446.95339 -60.42857,21.85714 45.71428,18.57143 26.14286,-35.78572 z"
           id="path3174"
           inkscape:connector-curvature="0" />
      </g>
      <g
         transform="matrix(-1,0,0,1,745.35258,-14)"
         id="g3180">
        <rect
           y="378.86526"
           x="340.37064"
           height="72.73098"
           width="18.182745"
           id="rect3182"
           style="fill:#fb8b00;fill-opacity:1;stroke:none" />
        <path
           sodipodi:nodetypes="ccccc"
           inkscape:connector-curvature="0"
           id="path3184"
           d="m 347.12481,446.95339 -60.42857,21.85714 45.71428,18.57143 26.14286,-35.78572 z"
           style="fill:#fb8b00;stroke:none" />
      </g>
      <path
         transform="matrix(0.59003831,0,0,0.59003831,186.08628,108.73722)"
         d="m 446.48743,416.47116 c 0,72.80489 -58.79389,131.82491 -131.31983,131.82491 -72.52593,0 -131.31982,-59.02002 -131.31982,-131.82491 0,-72.80488 58.79389,-131.8249 131.31982,-131.8249 72.52594,0 131.31983,59.02002 131.31983,131.8249 z"
         sodipodi:ry="131.82491"
         sodipodi:rx="131.31982"
         sodipodi:cy="416.47116"
         sodipodi:cx="315.1676"
         id="path2985"
         style="fill:#000000;fill-opacity:1;stroke:none"
         sodipodi:type="arc" />
      <path
         transform="translate(59.910095,0)"
         d="m 361.63462,289.69702 c 0,27.3367 -22.16077,49.49748 -49.49747,49.49748 -27.3367,0 -49.49748,-22.16078 -49.49748,-49.49748 0,-27.3367 22.16078,-49.49747 49.49748,-49.49747 27.3367,0 49.49747,22.16077 49.49747,49.49747 z"
         sodipodi:ry="49.497475"
         sodipodi:rx="49.497475"
         sodipodi:cy="289.69702"
         sodipodi:cx="312.13715"
         id="path2987"
         style="fill:#000000;fill-opacity:1;stroke:none"
         sodipodi:type="arc" />
      <path
         sodipodi:type="arc"
         style="fill:#ffffff;fill-opacity:1;stroke:none"
         id="path2989"
         sodipodi:cx="315.1676"
         sodipodi:cy="416.47116"
         sodipodi:rx="131.31982"
         sodipodi:ry="131.82491"
         d="m 446.48743,416.47116 c 0,72.80489 -58.79389,131.82491 -131.31983,131.82491 -72.52593,0 -131.31982,-59.02002 -131.31982,-131.82491 0,-72.80488 58.79389,-131.8249 131.31982,-131.8249 72.52594,0 131.31983,59.02002 131.31983,131.8249 z"
         transform="matrix(0.38675689,0,0,0.38675689,250.154,218.19562)" />
      <path
         sodipodi:nodetypes="czccc"
         inkscape:connector-curvature="0"
         id="rect3147"
         d="m 345.78328,275.11088 c 0,0 6.9297,-6 26.26396,-6 19.33426,0 26.26397,6 26.26397,6 l -26.26397,52.52793 z"
         style="fill:#fb8b00;fill-opacity:1;stroke:none" />
      <path
         transform="translate(0,-8)"
         sodipodi:type="arc"
         style="fill:#ffffff;fill-opacity:1;stroke:none"
         id="path3152"
         sodipodi:cx="359.61432"
         sodipodi:cy="266.71603"
         sodipodi:rx="9.8489876"
         sodipodi:ry="9.8489876"
         d="m 369.46331,266.71603 c 0,5.43945 -4.40955,9.84899 -9.84899,9.84899 -5.43945,0 -9.84899,-4.40954 -9.84899,-9.84899 0,-5.43944 4.40954,-9.84898 9.84899,-9.84898 5.43944,0 9.84899,4.40954 9.84899,9.84898 z" />
      <path
         transform="translate(0,-8)"
         d="m 391.93917,269.36768 c 0,3.55656 -2.88316,6.43972 -6.43972,6.43972 -3.55656,0 -6.43972,-2.88316 -6.43972,-6.43972 0,-3.55656 2.88316,-6.43973 6.43972,-6.43973 3.55656,0 6.43972,2.88317 6.43972,6.43973 z"
         sodipodi:ry="6.4397225"
         sodipodi:rx="6.4397225"
         sodipodi:cy="269.36768"
         sodipodi:cx="385.49945"
         id="path3154"
         style="fill:#ffffff;fill-opacity:1;stroke:none"
         sodipodi:type="arc" />
      <path
         sodipodi:nodetypes="cccc"
         inkscape:connector-curvature="0"
         id="path3160"
         d="M 332.14074,297.03867 247.29889,260.5461 c 10.94712,32.37883 32.49618,64.01962 75.63693,75.93783 z"
         style="fill:#000000;fill-opacity:1;stroke:none" />
      <path
         style="fill:#000000;fill-opacity:1;stroke:none"
         d="M 411.95375,297.03867 496.7956,260.5461 c -10.94712,32.37883 -32.49618,64.01962 -75.63693,75.93783 z"
         id="path3162"
         inkscape:connector-curvature="0"
         sodipodi:nodetypes="cccc" />
    </g>
  </g>
</svg>
